<?xml version="1.0" encoding="utf-8"?>
<!-- Generator: Adobe Illustrator 25.0.1, SVG Export Plug-In . SVG Version: 6.00 Build 0)  -->
<svg version="1.1" id="Layer_1" xmlns="http://www.w3.org/2000/svg" xmlns:xlink="http://www.w3.org/1999/xlink" x="0px" y="0px"
	 viewBox="0 0 318 75.7" style="enable-background:new 0 0 318 75.7;" xml:space="preserve">
<style type="text/css">
	.st0{fill:#E6505C;}
	.st1{fill:#46A6E0;}
	.st2{fill:#FFFFFF;}
</style>
<g>
	<rect x="182.7" y="161" class="st0" width="22.1" height="8.4"/>
	<rect x="182.7" y="143.9" class="st0" width="27.5" height="8.4"/>
	<rect x="182.7" y="126.8" class="st0" width="27.5" height="8.4"/>
</g>
<text transform="matrix(1 0 0 1 38.6921 168.4998)" style="font-family:'UbuntuMono-Regular'; font-size:69px;">over low</text>
<g>
	<rect x="182.7" y="237.8" class="st0" width="22.1" height="7.8"/>
	<rect x="182.7" y="220.7" class="st0" width="27.5" height="7.8"/>
	<rect x="182.7" y="203.6" class="st0" width="27.5" height="7.8"/>
</g>
<g>
	<path d="M70.4,229c0,2.5-0.4,4.8-1.1,6.9c-0.7,2-1.7,3.8-3,5.3c-1.3,1.5-2.8,2.6-4.6,3.4c-1.8,0.8-3.8,1.2-5.9,1.2
		c-2.1,0-4-0.4-5.8-1.2c-1.8-0.8-3.3-1.9-4.6-3.4c-1.3-1.5-2.3-3.2-3-5.3c-0.7-2-1.1-4.3-1.1-6.9c0-2.5,0.4-4.8,1.1-6.9
		c0.7-2.1,1.7-3.8,3-5.3c1.3-1.4,2.8-2.6,4.6-3.4c1.8-0.8,3.7-1.2,5.8-1.2c2.1,0,4.1,0.4,5.9,1.2c1.8,0.8,3.3,1.9,4.6,3.4
		c1.3,1.4,2.3,3.2,3,5.3C70.1,224.2,70.4,226.5,70.4,229z M64.6,229c0-3.6-0.8-6.5-2.3-8.6c-1.6-2.1-3.7-3.1-6.3-3.1
		c-2.6,0-4.7,1-6.2,3.1c-1.5,2.1-2.3,5-2.3,8.6c0,3.6,0.8,6.4,2.3,8.5c1.5,2.1,3.6,3.1,6.2,3.1c2.7,0,4.8-1,6.3-3.1
		C63.8,235.4,64.6,232.6,64.6,229z"/>
	<path d="M105.6,213c-0.8,3-1.8,5.9-2.8,8.8c-1.1,2.9-2.1,5.7-3.2,8.4c-1.1,2.7-2.2,5.3-3.4,7.8c-1.2,2.5-2.3,4.8-3.3,7h-5.2
		c-2.2-4.3-4.3-9.2-6.6-14.8c-2.2-5.5-4.2-11.3-5.9-17.2h6.2c0.6,2,1.2,4.2,1.9,6.4c0.7,2.3,1.5,4.5,2.2,6.8
		c0.8,2.3,1.6,4.4,2.4,6.5c0.8,2.1,1.6,4,2.4,5.6c0.8-1.7,1.6-3.5,2.5-5.6c0.9-2.1,1.7-4.3,2.5-6.5c0.8-2.3,1.6-4.5,2.4-6.8
		s1.4-4.4,2-6.4H105.6z"/>
	<path d="M125.6,212.2c4.3,0,7.7,1.3,10,4c2.3,2.7,3.5,6.8,3.5,12.2v2h-22.9c0.2,3.3,1.3,5.8,3.3,7.6c2,1.7,4.7,2.6,8.2,2.6
		c2,0,3.7-0.2,5.2-0.5c1.4-0.3,2.5-0.7,3.2-1l0.8,4.8c-0.7,0.4-1.9,0.8-3.7,1.2s-3.8,0.6-6.1,0.6c-2.8,0-5.2-0.4-7.3-1.3
		c-2.1-0.9-3.8-2-5.2-3.5c-1.4-1.5-2.4-3.2-3.1-5.3c-0.7-2-1-4.3-1-6.7c0-2.9,0.4-5.3,1.3-7.5c0.9-2.1,2-3.9,3.5-5.2
		c1.4-1.4,3-2.4,4.8-3.1C121.8,212.6,123.7,212.2,125.6,212.2z M133.3,225.9c0-2.7-0.7-4.9-2.1-6.5c-1.4-1.6-3.3-2.4-5.7-2.4
		c-1.3,0-2.5,0.3-3.6,0.8c-1.1,0.5-2,1.2-2.8,2c-0.8,0.8-1.4,1.8-1.9,2.8c-0.5,1.1-0.8,2.1-0.9,3.2H133.3z"/>
	<path d="M149.6,245v-30.3c4.7-1.6,9.4-2.4,14.2-2.4c1.5,0,2.9,0.1,4.2,0.2c1.3,0.1,2.8,0.4,4.4,0.7l-1,5c-1.5-0.4-2.8-0.7-3.9-0.8
		c-1.1-0.1-2.4-0.2-3.7-0.2c-2.8,0-5.7,0.4-8.6,1.2V245H149.6z"/>
	<path d="M234.5,245.8c-2,0-3.7-0.2-5-0.7c-1.3-0.5-2.4-1.2-3.2-2.2c-0.8-1-1.3-2.2-1.7-3.6c-0.3-1.4-0.5-3.1-0.5-5v-26.5h-9.2v-4.2
		h14.9v30.7c0,1.4,0.1,2.6,0.3,3.4c0.2,0.9,0.5,1.6,1,2.1c0.4,0.5,1,0.9,1.6,1.1c0.6,0.2,1.4,0.3,2.3,0.3c1.3,0,2.6-0.1,3.7-0.4
		c1.1-0.3,2-0.6,2.7-0.9l0.8,4.2c-0.3,0.1-0.7,0.3-1.2,0.5c-0.5,0.2-1.1,0.4-1.8,0.5c-0.7,0.2-1.4,0.3-2.2,0.4
		C236.2,245.7,235.4,245.8,234.5,245.8z"/>
	<path d="M277.4,229c0,2.5-0.4,4.8-1.1,6.9c-0.7,2-1.7,3.8-3,5.3c-1.3,1.5-2.8,2.6-4.6,3.4c-1.8,0.8-3.8,1.2-5.9,1.2
		c-2.1,0-4-0.4-5.8-1.2c-1.8-0.8-3.3-1.9-4.6-3.4c-1.3-1.5-2.3-3.2-3-5.3c-0.7-2-1.1-4.3-1.1-6.9c0-2.5,0.4-4.8,1.1-6.9
		c0.7-2.1,1.7-3.8,3-5.3c1.3-1.4,2.8-2.6,4.6-3.4c1.8-0.8,3.7-1.2,5.8-1.2c2.1,0,4.1,0.4,5.9,1.2c1.8,0.8,3.3,1.9,4.6,3.4
		c1.3,1.4,2.3,3.2,3,5.3C277.1,224.2,277.4,226.5,277.4,229z M271.6,229c0-3.6-0.8-6.5-2.3-8.6c-1.6-2.1-3.7-3.1-6.3-3.1
		c-2.6,0-4.7,1-6.2,3.1c-1.5,2.1-2.3,5-2.3,8.6c0,3.6,0.8,6.4,2.3,8.5c1.5,2.1,3.6,3.1,6.2,3.1c2.7,0,4.8-1,6.3-3.1
		C270.8,235.4,271.6,232.6,271.6,229z"/>
	<path d="M303.9,245c-0.7-1.6-1.3-3-1.8-4.3c-0.5-1.3-1-2.6-1.5-3.9c-0.5-1.3-1-2.6-1.4-4c-0.5-1.4-1-3-1.7-4.8
		c-0.6,1.8-1.2,3.4-1.7,4.8c-0.5,1.4-1,2.7-1.5,4c-0.5,1.3-1,2.6-1.5,3.9c-0.5,1.3-1.1,2.7-1.8,4.3h-4.3c-1.3-5.7-2.4-11.3-3.2-16.8
		c-0.9-5.5-1.5-10.6-1.9-15.2h5.4c0.1,1.8,0.3,3.6,0.4,5.3c0.2,1.7,0.4,3.5,0.6,5.4c0.2,1.9,0.5,3.9,0.8,6.1c0.3,2.2,0.6,4.7,1,7.5
		c0.7-1.8,1.4-3.5,1.9-4.8c0.5-1.4,1-2.7,1.4-3.9s0.8-2.5,1.2-3.8c0.4-1.3,0.8-2.7,1.3-4.3h4.3c0.5,1.6,0.9,3.1,1.2,4.3
		c0.4,1.3,0.8,2.6,1.2,3.8s0.9,2.6,1.3,3.9c0.5,1.4,1,3,1.7,4.8c0.4-2.5,0.8-4.9,1.1-7c0.3-2.2,0.6-4.2,0.8-6.1
		c0.2-1.9,0.4-3.8,0.6-5.6c0.2-1.8,0.3-3.6,0.5-5.5h5.2c-0.2,2.3-0.5,4.8-0.8,7.4c-0.3,2.6-0.7,5.3-1.2,8.1c-0.5,2.8-1,5.6-1.5,8.4
		s-1.1,5.6-1.7,8.2H303.9z"/>
</g>
<g>
	<rect x="161.3" y="48.9" class="st1" width="22.1" height="7.8"/>
	<rect x="161.3" y="31.8" class="st1" width="27.5" height="7.8"/>
	<rect x="161.3" y="14.8" class="st1" width="27.5" height="7.8"/>
</g>
<g>
	<path class="st2" d="M51,40.2c0,2.5-0.4,4.8-1.1,6.9c-0.7,2-1.7,3.8-3,5.3c-1.3,1.5-2.8,2.6-4.6,3.4c-1.8,0.8-3.8,1.2-5.9,1.2
		c-2.1,0-4-0.4-5.8-1.2c-1.8-0.8-3.3-1.9-4.6-3.4c-1.3-1.5-2.3-3.2-3-5.3c-0.7-2-1.1-4.3-1.1-6.9c0-2.5,0.4-4.8,1.1-6.9
		c0.7-2.1,1.7-3.8,3-5.3c1.3-1.4,2.8-2.6,4.6-3.4c1.8-0.8,3.7-1.2,5.8-1.2c2.1,0,4.1,0.4,5.9,1.2c1.8,0.8,3.3,1.9,4.6,3.4
		c1.3,1.4,2.3,3.2,3,5.3C50.7,35.3,51,37.6,51,40.2z M45.2,40.2c0-3.6-0.8-6.5-2.3-8.6c-1.6-2.1-3.7-3.1-6.3-3.1
		c-2.6,0-4.7,1-6.2,3.1c-1.5,2.1-2.3,5-2.3,8.6c0,3.6,0.8,6.4,2.3,8.5c1.5,2.1,3.6,3.1,6.2,3.1c2.7,0,4.8-1,6.3-3.1
		C44.4,46.6,45.2,43.8,45.2,40.2z"/>
	<path class="st2" d="M86.2,24.2c-0.8,3-1.8,5.9-2.8,8.8c-1.1,2.9-2.1,5.7-3.2,8.4c-1.1,2.7-2.2,5.3-3.4,7.8c-1.2,2.5-2.3,4.8-3.3,7
		h-5.2c-2.2-4.3-4.3-9.2-6.6-14.8c-2.2-5.5-4.2-11.3-5.9-17.2h6.2c0.6,2,1.2,4.2,1.9,6.4c0.7,2.3,1.5,4.5,2.2,6.8
		c0.8,2.3,1.6,4.4,2.4,6.5c0.8,2.1,1.6,4,2.4,5.6c0.8-1.7,1.6-3.5,2.5-5.6c0.9-2.1,1.7-4.3,2.5-6.5c0.8-2.3,1.6-4.5,2.4-6.8
		s1.4-4.4,2-6.4H86.2z"/>
	<path class="st2" d="M106.1,23.4c4.3,0,7.7,1.3,10,4c2.3,2.7,3.5,6.8,3.5,12.2v2H96.8c0.2,3.3,1.3,5.8,3.3,7.6
		c2,1.7,4.7,2.6,8.2,2.6c2,0,3.7-0.2,5.2-0.5c1.4-0.3,2.5-0.7,3.2-1l0.8,4.8c-0.7,0.4-1.9,0.8-3.7,1.2s-3.8,0.6-6.1,0.6
		c-2.8,0-5.2-0.4-7.3-1.3c-2.1-0.9-3.8-2-5.2-3.5c-1.4-1.5-2.4-3.2-3.1-5.3c-0.7-2-1-4.3-1-6.7c0-2.9,0.4-5.3,1.3-7.5
		c0.9-2.1,2-3.9,3.5-5.2c1.4-1.4,3-2.4,4.8-3.1C102.4,23.7,104.3,23.4,106.1,23.4z M113.9,37.1c0-2.7-0.7-4.9-2.1-6.5
		c-1.4-1.6-3.3-2.4-5.7-2.4c-1.3,0-2.5,0.3-3.6,0.8c-1.1,0.5-2,1.2-2.8,2c-0.8,0.8-1.4,1.8-1.9,2.8c-0.5,1.1-0.8,2.1-0.9,3.2H113.9z
		"/>
	<path class="st2" d="M130.2,56.2V25.9c4.7-1.6,9.4-2.4,14.2-2.4c1.5,0,2.9,0.1,4.2,0.2c1.3,0.1,2.8,0.4,4.4,0.7l-1,5
		c-1.5-0.4-2.8-0.7-3.9-0.8c-1.1-0.1-2.4-0.2-3.7-0.2c-2.8,0-5.7,0.4-8.6,1.2v26.6H130.2z"/>
	<path class="st2" d="M215.1,56.9c-2,0-3.7-0.2-5-0.7c-1.3-0.5-2.4-1.2-3.2-2.2c-0.8-1-1.3-2.2-1.7-3.6c-0.3-1.4-0.5-3.1-0.5-5V19
		h-9.2v-4.2h14.9v30.7c0,1.4,0.1,2.6,0.3,3.4c0.2,0.9,0.5,1.6,1,2.1c0.4,0.5,1,0.9,1.6,1.1c0.6,0.2,1.4,0.3,2.3,0.3
		c1.3,0,2.6-0.1,3.7-0.4c1.1-0.3,2-0.6,2.7-0.9l0.8,4.2c-0.3,0.1-0.7,0.3-1.2,0.5c-0.5,0.2-1.1,0.4-1.8,0.5
		c-0.7,0.2-1.4,0.3-2.2,0.4C216.8,56.9,216,56.9,215.1,56.9z"/>
	<path class="st2" d="M258,40.2c0,2.5-0.4,4.8-1.1,6.9c-0.7,2-1.7,3.8-3,5.3c-1.3,1.5-2.8,2.6-4.6,3.4c-1.8,0.8-3.8,1.2-5.9,1.2
		c-2.1,0-4-0.4-5.8-1.2c-1.8-0.8-3.3-1.9-4.6-3.4c-1.3-1.5-2.3-3.2-3-5.3c-0.7-2-1.1-4.3-1.1-6.9c0-2.5,0.4-4.8,1.1-6.9
		c0.7-2.1,1.7-3.8,3-5.3c1.3-1.4,2.8-2.6,4.6-3.4c1.8-0.8,3.7-1.2,5.8-1.2c2.1,0,4.1,0.4,5.9,1.2c1.8,0.8,3.3,1.9,4.6,3.4
		c1.3,1.4,2.3,3.2,3,5.3C257.7,35.3,258,37.6,258,40.2z M252.2,40.2c0-3.6-0.8-6.5-2.3-8.6c-1.6-2.1-3.7-3.1-6.3-3.1
		c-2.6,0-4.7,1-6.2,3.1c-1.5,2.1-2.3,5-2.3,8.6c0,3.6,0.8,6.4,2.3,8.5c1.5,2.1,3.6,3.1,6.2,3.1c2.7,0,4.8-1,6.3-3.1
		C251.4,46.6,252.2,43.8,252.2,40.2z"/>
	<path class="st2" d="M284.4,56.2c-0.7-1.6-1.3-3-1.8-4.3c-0.5-1.3-1-2.6-1.5-3.9c-0.5-1.3-1-2.6-1.4-4c-0.5-1.4-1-3-1.7-4.8
		c-0.6,1.8-1.2,3.4-1.7,4.8c-0.5,1.4-1,2.7-1.5,4c-0.5,1.3-1,2.6-1.5,3.9c-0.5,1.3-1.1,2.7-1.8,4.3h-4.3c-1.3-5.7-2.4-11.3-3.2-16.8
		c-0.9-5.5-1.5-10.6-1.9-15.2h5.4c0.1,1.8,0.3,3.6,0.4,5.3c0.2,1.7,0.4,3.5,0.6,5.4c0.2,1.9,0.5,3.9,0.8,6.1c0.3,2.2,0.6,4.7,1,7.5
		c0.7-1.8,1.4-3.5,1.9-4.8c0.5-1.4,1-2.7,1.4-3.9s0.8-2.5,1.2-3.8c0.4-1.3,0.8-2.7,1.3-4.3h4.3c0.5,1.6,0.9,3.1,1.2,4.3
		c0.4,1.3,0.8,2.6,1.2,3.8s0.9,2.6,1.3,3.9c0.5,1.4,1,3,1.7,4.8c0.4-2.5,0.8-4.9,1.1-7c0.3-2.2,0.6-4.2,0.8-6.1
		c0.2-1.9,0.4-3.8,0.6-5.6c0.2-1.8,0.3-3.6,0.5-5.5h5.2c-0.2,2.3-0.5,4.8-0.8,7.4c-0.3,2.6-0.7,5.3-1.2,8.1c-0.5,2.8-1,5.6-1.5,8.4
		s-1.1,5.6-1.7,8.2H284.4z"/>
</g>
</svg>
