<?xml version="1.0" encoding="utf-8"?>
<!-- Generator: Adobe Illustrator 24.2.3, SVG Export Plug-In . SVG Version: 6.00 Build 0)  -->
<svg version="1.1" id="Layer_1" xmlns="http://www.w3.org/2000/svg" xmlns:xlink="http://www.w3.org/1999/xlink" x="0px" y="0px"
	 viewBox="0 0 318 114.7" style="enable-background:new 0 0 318 114.7;" xml:space="preserve">
<style type="text/css">
	.st0{fill:#E6505C;}
	.st1{fill:#FFFFFF;}
</style>
<rect x="185.5" y="83.5" class="st0" width="97" height="7.3"/>
<g>
	<path class="st1" d="M77.8,28l-1.9,7.8H60.7L50.4,78.9h-9.3l10.4-43.2H36.3l1.8-7.8H77.8z"/>
	<path class="st1" d="M108.5,40.5c-1,2.8-2.1,5.7-3.2,8.7s-2.5,6-3.9,9.1c-1.4,3-3,6.1-4.7,9.1s-3.5,5.9-5.4,8.8
		c-1.4,2.2-2.9,4.2-4.4,6.2c-1.5,2-3.2,3.7-5,5.3c-1.8,1.5-3.8,2.8-5.9,3.7s-4.6,1.4-7.4,1.4c-1.5,0-2.9-0.2-4.1-0.5
		c-1.2-0.3-2.2-0.7-3-1.2l2.9-7.1c0.7,0.4,1.5,0.7,2.3,1c0.9,0.2,1.8,0.4,2.8,0.4c2.3,0,4.3-0.6,6.1-1.8s3.3-2.8,4.8-4.9
		c-1.6-5.4-2.9-11.3-4-17.7s-1.8-13.1-2.1-20.3h9c0.1,2.1,0.2,4.3,0.3,6.8s0.4,5.1,0.7,7.7s0.6,5.2,1,7.8c0.4,2.6,0.8,4.9,1.3,7.1
		c1.5-2.3,2.8-4.8,4.1-7.4s2.5-5.2,3.5-7.8c1.1-2.6,2-5.1,2.8-7.5s1.5-4.6,2.1-6.7L108.5,40.5L108.5,40.5z"/>
	<path class="st1" d="M145.2,54.3c0,3.5-0.6,6.8-1.6,9.8c-1.1,3.1-2.7,5.8-4.9,8.1s-4.7,4.1-7.8,5.5c-3.1,1.3-6.6,2-10.6,2
		c-0.7,0-1.4,0-2.1-0.1s-1.4-0.2-2.1-0.3l-3.2,13.2h-8.9L116.2,42c2-0.7,4.2-1.3,6.7-1.8c2.5-0.4,5-0.7,7.5-0.7
		c2.6,0,4.8,0.4,6.6,1.1c1.9,0.8,3.4,1.8,4.6,3.1c1.2,1.3,2.1,2.9,2.7,4.7C144.9,50.3,145.2,52.2,145.2,54.3z M117.9,72
		c0.5,0.1,1,0.2,1.6,0.2c0.5,0,1.1,0,1.6,0c2.4,0,4.5-0.4,6.4-1.4s3.5-2.1,4.8-3.7c1.3-1.5,2.3-3.4,3.1-5.4c0.7-2.1,1.1-4.3,1.1-6.7
		c0-1.1-0.1-2.1-0.4-3c-0.2-1-0.6-1.8-1.2-2.5c-0.6-0.7-1.3-1.3-2.3-1.8c-1-0.4-2.2-0.7-3.6-0.7c-1,0-1.9,0.1-2.8,0.2
		s-1.7,0.3-2.3,0.5L117.9,72z"/>
	<path class="st1" d="M150.5,65c0-3.3,0.5-6.5,1.6-9.5s2.6-5.8,4.6-8.2c2-2.4,4.4-4.3,7.2-5.7c2.8-1.4,5.9-2.1,9.4-2.1
		c3.7,0,6.6,1,8.7,2.9c2.1,1.9,3.1,4.4,3.1,7.3c0,3.1-0.8,5.6-2.3,7.5s-3.5,3.4-5.9,4.5s-5.2,1.8-8.2,2.2c-3.1,0.4-6.2,0.6-9.3,0.7
		c-0.1,0.1-0.1,0.2-0.1,0.3v0.7c0,4.5,2.8,6.7,8.5,6.7c3.3,0,6.7-0.7,10-2.1l0.7,7.2c-1.2,0.5-2.8,1.1-5,1.6s-4.6,0.8-7.4,0.8
		c-2.8,0-5.1-0.4-7.1-1.2c-2-0.8-3.6-1.9-4.8-3.2s-2.2-2.9-2.8-4.7C150.8,69,150.5,67.1,150.5,65z M171.9,46.8
		c-1.5,0-2.9,0.3-4.2,0.9s-2.5,1.4-3.5,2.4s-1.9,2.2-2.7,3.6c-0.8,1.4-1.3,2.9-1.6,4.5c5.9-0.2,10.2-0.9,12.8-2.1
		c2.7-1.2,4-3.1,4-5.5c0-1-0.4-1.9-1.1-2.7C174.9,47.2,173.7,46.8,171.9,46.8z"/>
	<path class="st1" d="M189,64.4c0-3.3,0.5-6.5,1.6-9.5s2.6-5.7,4.5-7.9s4.4-4.1,7.2-5.4c2.8-1.3,6.1-2,9.7-2c1.9,0,3.7,0.2,5.3,0.5
		c1.6,0.3,3.1,0.8,4.5,1.4l-3.2,7.1c-0.9-0.4-1.9-0.7-2.9-1c-1.1-0.3-2.4-0.4-4-0.4c-2.1,0-4,0.4-5.7,1.3s-3.1,2-4.3,3.5
		s-2.1,3.2-2.7,5.2c-0.6,2-1,4.1-1,6.4c0,1.3,0.1,2.4,0.4,3.5c0.3,1.1,0.7,2,1.3,2.8c0.6,0.8,1.5,1.4,2.5,1.9s2.4,0.7,4,0.7
		c1.7,0,3.3-0.2,4.8-0.7c1.5-0.4,2.7-0.9,3.6-1.3l0.7,7.3c-1.1,0.5-2.6,1.1-4.5,1.6c-1.9,0.5-4,0.8-6.3,0.8c-2.7,0-5-0.4-7-1.2
		s-3.6-1.9-4.9-3.3c-1.3-1.4-2.2-3-2.9-4.9C189.3,68.6,189,66.6,189,64.4z"/>
	<path class="st1" d="M253.9,64c-0.1,0.5-0.3,1.4-0.4,2.7c-0.1,1.2-0.2,2.4-0.2,3.5c0,1.4,0.1,2.8,0.4,4.2c0.2,1.3,0.6,2.7,1.2,4.1
		l-7.9,1.2c-0.6-1.2-1.1-2.4-1.4-3.8c-1.2,1.1-2.7,2.1-4.5,2.9c-1.8,0.9-3.8,1.3-6.1,1.3c-2.3,0-4.3-0.4-5.9-1.1s-3-1.8-4-3.2
		c-1-1.3-1.8-2.9-2.3-4.7s-0.7-3.8-0.7-5.9c0-3.6,0.6-6.9,1.9-10s3.1-5.8,5.3-8c2.3-2.2,5-4,8.1-5.3c3.1-1.3,6.6-2,10.3-2
		c1.9,0,3.8,0.2,5.8,0.5c1.9,0.3,3.9,0.9,5.8,1.8L253.9,64z M249.1,47.4c-0.9-0.2-2-0.3-3.2-0.3c-2.2,0-4.2,0.5-6.1,1.4
		c-1.9,1-3.5,2.2-4.8,3.8s-2.4,3.4-3.1,5.5s-1.1,4.2-1.1,6.5c0,1.1,0.1,2.2,0.3,3.2c0.2,1,0.5,1.8,1,2.6s1.1,1.3,1.9,1.8
		c0.8,0.4,1.8,0.7,3,0.7c1.6,0,2.9-0.3,4.2-1c1.2-0.7,2.3-1.6,3.4-2.7c0.1-1.3,0.2-2.5,0.3-3.6s0.4-2.2,0.7-3.4L249.1,47.4z"/>
	<path class="st1" d="M276,79.7c-2.3-0.1-4.2-0.3-5.9-0.9c-1.6-0.5-2.9-1.3-3.8-2.2c-1-0.9-1.6-2-2.1-3.3c-0.4-1.3-0.6-2.7-0.6-4.2
		c0-1.6,0.2-3.2,0.5-5c0.4-1.7,0.8-3.5,1.2-5.2l8.5-35.6l9.3-1.5c-1.5,6.4-3.1,12.8-4.6,19.1c-1.5,6.3-3.1,12.7-4.7,19.1
		c-0.2,1-0.5,2-0.8,3c-0.3,1-0.4,2-0.4,3c0,0.8,0,1.6,0,2.3c0,0.7,0.2,1.3,0.6,1.8c0.4,0.5,0.9,0.9,1.6,1.3c0.7,0.3,1.7,0.6,2.9,0.7
		L276,79.7z"/>
</g>
</svg>
